<svg xmlns="http://www.w3.org/2000/svg" viewBox="0 0 337.65 70.85"><defs><style>.cls-1{fill:#41a08f;}</style></defs><g id="Layer_2" data-name="Layer 2"><g id="Layer_2-2" data-name="Layer 2"><polygon class="cls-1" points="175.52 70 193.11 70 193.11 65.44 318.76 65.69 318.76 70 337.64 70 337.64 41.45 283.53 41.71 283.53 28.17 337.64 28.17 337.64 0 319.41 0 319.41 5.27 193.28 5.79 193.11 0 175.52 0 175.52 28.59 259.43 28.17 259.43 41.71 175.52 41.93 175.52 70"/><path class="cls-1" d="M0,4.24V66.85H18.48v-8.3l26.83,7.32,98.82-1v5.93h18V42L77.94,42V28.41h84.19V.24H143.69l0,5.27-100.27,0-25.44,7-.1-8.26ZM54.36,42.79,26.75,36.08l27.61-8.87Z"/></g></g></svg>