<svg xmlns="http://www.w3.org/2000/svg" viewBox="0 0 148.32 162.13"><defs><style>.cls-a{fill:#41a08f;}</style></defs><g id="Layer_2" data-name="Layer 2"><g id="Layer_2-2" data-name="Layer 2"><polygon class="cls-a" points="78.32 0 78.32 17.59 82.89 17.59 82.64 143.25 78.32 143.25 78.32 162.13 106.87 162.13 106.61 108.01 120.16 108.01 120.16 162.13 148.32 162.13 148.32 143.89 143.05 143.89 142.54 17.76 148.32 17.59 148.32 0 119.73 0 120.16 83.91 106.61 83.91 106.39 0 78.32 0"/><path class="cls-a" d="M66.61,0H4V18.48h8.3L5,45.31l.95,98.82H0v18H28.89V77.94H42.45v84.19H70.61V143.69l-5.27,0,0-100.27-7-25.44,8.25-.1ZM28.06,54.36l6.72-27.61,8.87,27.61Z"/></g></g></svg>