<svg xmlns="http://www.w3.org/2000/svg" viewBox="0 0 70.85 337.65"><defs><style>.cls-a{fill:#41a08f;}</style></defs><g id="Layer_2" data-name="Layer 2"><g id="Layer_2-2" data-name="Layer 2"><polygon class="cls-a" points="0.85 175.52 0.85 193.11 5.42 193.11 5.17 318.76 0.85 318.76 0.85 337.64 29.41 337.64 29.14 283.53 42.69 283.53 42.69 337.64 70.85 337.64 70.85 319.41 65.58 319.41 65.07 193.28 70.85 193.11 70.85 175.52 42.26 175.52 42.69 259.43 29.14 259.43 28.92 175.52 0.85 175.52"/><path class="cls-a" d="M66.61,0H4V18.48h8.3L5,45.31l.95,98.82H0v18H28.89V77.94H42.45v84.19H70.61V143.69l-5.27,0,0-100.27-7-25.44,8.25-.1ZM28.06,54.36l6.72-27.61,8.87,27.61Z"/></g></g></svg>