<svg width="562" height="246" viewBox="0 0 562 246" fill="none" xmlns="http://www.w3.org/2000/svg">
<rect width="562" height="246" fill="white"/>
<path d="M176.93 17L250.085 143.008H104.902L176.93 17Z" fill="#60FFE2"/>
<circle cx="198.038" cy="88.2217" r="30.1323" fill="#FD408D"/>
<circle cx="73.7103" cy="91.7292" r="13.6965" fill="#FF8472"/>
<rect x="7.96722" y="110.905" width="79.4397" height="115.051" fill="#FD408D"/>
<rect x="16.1848" y="119.122" width="63.0039" height="13.6965" fill="white"/>
<path d="M25.698 204.041L35.3599 220.476H16.1848L25.698 204.041Z" fill="#60FFE2"/>
<path d="M47.6123 204.041L57.2742 220.476H38.0991L47.6123 204.041Z" fill="#60FFE2"/>
<path d="M69.527 204.041L79.1889 220.476H60.0138L69.527 204.041Z" fill="#60FFE2"/>
<rect x="16.1848" y="138.298" width="63.0039" height="13.6965" fill="white"/>
<rect x="16.1848" y="157.473" width="63.0039" height="13.6965" fill="white"/>
<rect x="16.1848" y="176.647" width="63.0039" height="13.6965" fill="white"/>
<rect x="293.984" y="56.4917" width="58.6393" height="11.9672" fill="#FD408D"/>
<rect x="276.033" y="56.4917" width="11.9672" height="11.9672" fill="#FF8472"/>
<rect x="502.213" y="82.8198" width="47.8688" height="47.8688" fill="#41A08F"/>
<circle cx="526.148" cy="82.8201" r="15.5574" fill="#FD408D"/>
<rect x="237.738" y="94.7866" width="189.082" height="112.645" fill="#FD408D"/>
<rect x="330.775" y="123.319" width="78.4489" height="10.0576" fill="white"/>
<rect x="330.775" y="139.411" width="78.4489" height="10.0576" fill="white"/>
<rect x="330.775" y="155.503" width="78.4489" height="10.0576" fill="white"/>
<rect x="330.775" y="171.595" width="54.3108" height="10.0576" fill="white"/>
<ellipse cx="286.014" cy="150.982" rx="28.1611" ry="27.1554" fill="#FF8472"/>
<rect x="481.869" y="168.984" width="62.2295" height="67.0164" fill="#FD408D"/>
<circle cx="496.229" cy="196.109" r="4.78688" fill="#1F6D99"/>
<circle cx="513.781" cy="196.109" r="4.78688" fill="#FF8472"/>
<circle cx="531.333" cy="196.109" r="4.78688" fill="#1F6D99"/>
<rect x="488.251" y="176.962" width="49.4645" height="7.97814" fill="white"/>
<path d="M512.891 208.875L524.951 228.023H501.016L512.891 208.875Z" fill="#60FFE2"/>
<rect x="168.328" y="183.344" width="11.9672" height="11.9672" fill="#FF8472"/>
<rect x="183.885" y="183.344" width="11.9672" height="11.9672" fill="#FF8472"/>
<rect x="199.443" y="183.344" width="11.9672" height="11.9672" fill="#FF8472"/>
<rect x="199.443" y="198.901" width="11.9672" height="11.9672" fill="#FF8472"/>
<rect x="183.885" y="198.901" width="11.9672" height="11.9672" fill="#FF8472"/>
<rect x="168.328" y="198.901" width="11.9672" height="11.9672" fill="#FF8472"/>
<rect x="395.705" y="56.4917" width="63.4262" height="59.8361" fill="#FF8472"/>
<rect x="400.492" y="98.377" width="23.9344" height="13.1639" fill="white"/>
<rect x="400.492" y="74.4424" width="52.6557" height="7.18033" fill="white"/>
<rect x="429.213" y="98.377" width="23.9344" height="13.1639" fill="#60FFE2"/>
<path d="M65 160C65 157.791 66.7909 156 69 156H141C143.209 156 145 157.791 145 160V181C145 183.209 143.209 185 141 185H65V160Z" fill="#FFDED9"/>
<circle cx="74" cy="165" r="5" fill="black"/>
<mask id="mask0_503_16359" style="mask-type:alpha" maskUnits="userSpaceOnUse" x="69" y="160" width="10" height="10">
<circle cx="74" cy="165" r="5" fill="black"/>
</mask>
<g mask="url(#mask0_503_16359)">
<circle cx="74" cy="168" r="3" fill="white"/>
</g>
<circle cx="74" cy="164" r="2.5" fill="white" stroke="black"/>
<rect x="86" y="162" width="52" height="4" fill="#555555"/>
<rect x="86" y="168" width="13" height="4" fill="#555555"/>
<rect x="102" y="168" width="21" height="4" fill="#555555"/>
<rect x="126" y="168" width="12" height="4" fill="#555555"/>
<rect x="86" y="174" width="24" height="4" fill="#555555"/>
<rect x="112" y="174" width="9" height="4" fill="#555555"/>
<rect x="123" y="174" width="15" height="4" fill="#555555"/>
<path d="M404.175 208.857L408.171 209.824C408.275 209.397 408.373 209.037 408.466 208.744C408.562 208.44 408.684 208.171 408.831 207.936C408.967 207.698 409.156 207.478 409.396 207.277C409.637 207.076 409.956 206.854 410.353 206.611C410.986 206.279 411.616 205.935 412.244 205.579C412.884 205.215 413.473 204.81 414.009 204.365C414.543 203.93 415.013 203.434 415.418 202.878C415.826 202.311 416.121 201.649 416.304 200.892C416.552 199.869 416.599 198.927 416.446 198.067C416.293 197.206 415.961 196.432 415.451 195.745C414.927 195.065 414.228 194.479 413.355 193.986C412.481 193.492 411.453 193.103 410.27 192.817C409.215 192.562 408.202 192.458 407.231 192.505C406.264 192.542 405.38 192.746 404.579 193.116C403.779 193.487 403.084 194.029 402.493 194.744C401.906 195.448 401.475 196.342 401.202 197.427L405.662 198.505C405.791 198.018 405.984 197.619 406.239 197.308C406.506 197 406.81 196.769 407.152 196.615C407.483 196.458 407.841 196.375 408.227 196.367C408.615 196.348 409.001 196.385 409.385 196.478C409.875 196.596 410.294 196.754 410.641 196.951C410.999 197.15 411.285 197.389 411.5 197.666C411.699 197.963 411.824 198.309 411.875 198.705C411.929 199.09 411.896 199.528 411.778 200.018C411.68 200.423 411.491 200.806 411.212 201.167C410.933 201.528 410.603 201.866 410.223 202.18C409.829 202.502 409.406 202.806 408.953 203.092C408.503 203.366 408.057 203.625 407.615 203.868C407.018 204.141 406.539 204.42 406.177 204.705C405.817 204.979 405.519 205.302 405.283 205.673C405.044 206.055 404.841 206.497 404.675 206.998C404.519 207.502 404.352 208.122 404.175 208.857ZM402.348 213.543C402.183 214.225 402.273 214.856 402.618 215.436C402.965 216.005 403.544 216.387 404.354 216.583C405.143 216.774 405.827 216.697 406.407 216.352C407 215.999 407.379 215.481 407.544 214.799C407.714 214.096 407.616 213.452 407.25 212.867C406.897 212.274 406.326 211.882 405.537 211.691C404.727 211.495 404.035 211.582 403.461 211.951C402.889 212.309 402.518 212.839 402.348 213.543Z" fill="black"/>
</svg>
