<svg width="562" height="315" viewBox="0 0 562 315" fill="none" xmlns="http://www.w3.org/2000/svg">
<rect width="562" height="315" fill="white"/>
<path d="M549.5 207.5C549.5 223.501 536.084 236.5 519.5 236.5C502.916 236.5 489.5 223.501 489.5 207.5C489.5 191.499 502.916 178.5 519.5 178.5C536.084 178.5 549.5 191.499 549.5 207.5Z" stroke="#555555"/>
<path d="M62.5 186C62.5 197.3 52.8963 206.5 41 206.5C29.1037 206.5 19.5 197.3 19.5 186C19.5 174.7 29.1037 165.5 41 165.5C52.8963 165.5 62.5 174.7 62.5 186Z" stroke="#555555"/>
<path d="M46.5 238.5C46.5 249.524 37.1207 258.5 25.5 258.5C13.8793 258.5 4.5 249.524 4.5 238.5C4.5 227.476 13.8793 218.5 25.5 218.5C37.1207 218.5 46.5 227.476 46.5 238.5Z" stroke="#555555"/>
<rect x="218.5" y="165.5" width="119" height="137" fill="white" stroke="#555555"/>
<rect x="235.5" y="185.5" width="85" height="47" fill="white" stroke="#555555"/>
<rect x="415.5" y="12.5" width="84" height="100" fill="white" stroke="#555555"/>
<rect x="415.5" y="12.5" width="21" height="21" fill="white" stroke="#555555"/>
<rect x="235.5" y="244.5" width="85" height="21" fill="white" stroke="#555555"/>
<rect x="71.5" y="222.5" width="61" height="73" fill="white" stroke="#555555"/>
<rect x="80.5" y="233.5" width="43" height="25" fill="white" stroke="#555555"/>
<rect x="80.5" y="266.5" width="43" height="10" fill="white" stroke="#555555"/>
<rect x="489.5" y="248.5" width="60" height="17" fill="white" stroke="#555555"/>
<path d="M470.354 207.354C470.549 207.158 470.549 206.842 470.354 206.646L467.172 203.464C466.976 203.269 466.66 203.269 466.464 203.464C466.269 203.66 466.269 203.976 466.464 204.172L469.293 207L466.464 209.828C466.269 210.024 466.269 210.34 466.464 210.536C466.66 210.731 466.976 210.731 467.172 210.536L470.354 207.354ZM358 207.5H470V206.5H358V207.5Z" fill="#555555"/>
<path d="M192.354 185.354C192.549 185.158 192.549 184.842 192.354 184.646L189.172 181.464C188.976 181.269 188.66 181.269 188.464 181.464C188.269 181.66 188.269 181.976 188.464 182.172L191.293 185L188.464 187.828C188.269 188.024 188.269 188.34 188.464 188.536C188.66 188.731 188.976 188.731 189.172 188.536L192.354 185.354ZM80 185.5H192V184.5H80V185.5Z" fill="#555555"/>
<path d="M156.646 258.646C156.451 258.842 156.451 259.158 156.646 259.354L159.828 262.536C160.024 262.731 160.34 262.731 160.536 262.536C160.731 262.34 160.731 262.024 160.536 261.828L157.707 259L160.536 256.172C160.731 255.976 160.731 255.66 160.536 255.464C160.34 255.269 160.024 255.269 159.828 255.464L156.646 258.646ZM194 258.5H157V259.5H194V258.5Z" fill="#555555"/>
<path d="M391.926 62.3552C391.944 62.0796 391.735 61.8419 391.46 61.8242L386.969 61.536C386.693 61.5183 386.455 61.7273 386.438 62.0029C386.42 62.2785 386.629 62.5162 386.905 62.5339L390.897 62.7901L390.64 66.7819C390.623 67.0575 390.832 67.2952 391.107 67.3129C391.383 67.3306 391.621 67.1216 391.638 66.846L391.926 62.3552ZM307.962 136.386L391.758 62.6987L391.097 61.9477L307.301 135.635L307.962 136.386Z" fill="#555555"/>
<line x1="522" y1="81.5" x2="550" y2="81.5" stroke="#555555"/>
<line x1="71" y1="158.5" x2="100" y2="158.5" stroke="#555555"/>
<line x1="522" y1="72.5" x2="550" y2="72.5" stroke="#555555"/>
<line x1="71" y1="149.5" x2="100" y2="149.5" stroke="#555555"/>
<line x1="522" y1="64.5" x2="550" y2="64.5" stroke="#555555"/>
<line x1="71" y1="140.5" x2="100" y2="140.5" stroke="#555555"/>
<path d="M25 219C25 216.791 26.7909 215 29 215H101C103.209 215 105 216.791 105 219V240C105 242.209 103.209 244 101 244H25V219Z" fill="#FFDED9"/>
<circle cx="34" cy="224" r="5" fill="black"/>
<mask id="mask0_503_16219" style="mask-type:alpha" maskUnits="userSpaceOnUse" x="29" y="219" width="10" height="10">
<circle cx="34" cy="224" r="5" fill="black"/>
</mask>
<g mask="url(#mask0_503_16219)">
<circle cx="34" cy="227" r="3" fill="white"/>
</g>
<circle cx="34" cy="223" r="2.5" fill="white" stroke="black"/>
<rect x="46" y="221" width="52" height="4" fill="#555555"/>
<rect x="46" y="227" width="13" height="4" fill="#555555"/>
<rect x="62" y="227" width="21" height="4" fill="#555555"/>
<rect x="86" y="227" width="12" height="4" fill="#555555"/>
<rect x="46" y="233" width="24" height="4" fill="#555555"/>
<rect x="72" y="233" width="9" height="4" fill="#555555"/>
<rect x="83" y="233" width="15" height="4" fill="#555555"/>
<path d="M329 155C329 152.791 330.791 151 333 151H405C407.209 151 409 152.791 409 155V176C409 178.209 407.209 180 405 180H329V155Z" fill="#FFDED9"/>
<circle cx="338" cy="160" r="5" fill="black"/>
<mask id="mask1_503_16219" style="mask-type:alpha" maskUnits="userSpaceOnUse" x="333" y="155" width="10" height="10">
<circle cx="338" cy="160" r="5" fill="black"/>
</mask>
<g mask="url(#mask1_503_16219)">
<circle cx="338" cy="163" r="3" fill="white"/>
</g>
<circle cx="338" cy="159" r="2.5" fill="white" stroke="black"/>
<rect x="350" y="157" width="52" height="4" fill="#555555"/>
<rect x="350" y="163" width="13" height="4" fill="#555555"/>
<rect x="366" y="163" width="21" height="4" fill="#555555"/>
<rect x="390" y="163" width="12" height="4" fill="#555555"/>
<rect x="350" y="169" width="24" height="4" fill="#555555"/>
<rect x="376" y="169" width="9" height="4" fill="#555555"/>
<rect x="387" y="169" width="15" height="4" fill="#555555"/>
<path d="M145.07 190.744L149.088 189.869C148.995 189.441 148.926 189.074 148.882 188.769C148.836 188.454 148.828 188.158 148.857 187.882C148.876 187.609 148.95 187.329 149.079 187.043C149.207 186.757 149.397 186.418 149.649 186.027C150.073 185.452 150.49 184.867 150.9 184.273C151.317 183.666 151.67 183.045 151.958 182.41C152.249 181.785 152.455 181.134 152.577 180.457C152.696 179.769 152.673 179.045 152.508 178.284C152.284 177.255 151.915 176.387 151.402 175.68C150.889 174.972 150.252 174.421 149.493 174.025C148.725 173.642 147.84 173.42 146.839 173.357C145.838 173.294 144.743 173.393 143.554 173.652C142.493 173.883 141.536 174.231 140.684 174.697C139.829 175.153 139.123 175.722 138.564 176.405C138.006 177.087 137.617 177.879 137.398 178.779C137.177 179.669 137.18 180.662 137.407 181.757L141.891 180.781C141.794 180.286 141.793 179.842 141.887 179.452C141.993 179.058 142.165 178.718 142.406 178.43C142.635 178.144 142.922 177.913 143.265 177.738C143.606 177.551 143.969 177.416 144.355 177.332C144.848 177.225 145.293 177.184 145.692 177.209C146.101 177.232 146.463 177.322 146.777 177.478C147.086 177.658 147.349 177.914 147.568 178.248C147.784 178.572 147.946 178.98 148.053 179.473C148.142 179.88 148.139 180.307 148.046 180.753C147.952 181.2 147.803 181.648 147.598 182.097C147.384 182.559 147.136 183.017 146.853 183.471C146.568 183.914 146.28 184.342 145.988 184.753C145.571 185.26 145.261 185.72 145.06 186.134C144.856 186.537 144.728 186.958 144.678 187.395C144.629 187.844 144.64 188.329 144.709 188.853C144.789 189.374 144.909 190.005 145.07 190.744ZM145.472 195.757C145.621 196.443 145.977 196.971 146.541 197.342C147.102 197.703 147.789 197.794 148.604 197.617C149.396 197.444 149.978 197.076 150.349 196.513C150.729 195.937 150.844 195.305 150.695 194.62C150.541 193.913 150.171 193.376 149.587 193.009C149.01 192.63 148.326 192.526 147.533 192.699C146.718 192.876 146.133 193.256 145.778 193.839C145.42 194.41 145.318 195.05 145.472 195.757Z" fill="black"/>
</svg>
