<svg width="546" height="291" viewBox="0 0 546 291" fill="none" xmlns="http://www.w3.org/2000/svg">
<path d="M545.5 195.5C545.5 211.501 532.084 224.5 515.5 224.5C498.916 224.5 485.5 211.501 485.5 195.5C485.5 179.499 498.916 166.5 515.5 166.5C532.084 166.5 545.5 179.499 545.5 195.5Z" stroke="#555555"/>
<path d="M58.5 174C58.5 185.3 48.8963 194.5 37 194.5C25.1037 194.5 15.5 185.3 15.5 174C15.5 162.7 25.1037 153.5 37 153.5C48.8963 153.5 58.5 162.7 58.5 174Z" stroke="#555555"/>
<path d="M42.5 226.5C42.5 237.524 33.1207 246.5 21.5 246.5C9.87931 246.5 0.5 237.524 0.5 226.5C0.5 215.476 9.87931 206.5 21.5 206.5C33.1207 206.5 42.5 215.476 42.5 226.5Z" stroke="#555555"/>
<rect x="214.5" y="153.5" width="119" height="137" fill="white" stroke="#555555"/>
<rect x="231.5" y="173.5" width="85" height="47" fill="white" stroke="#555555"/>
<rect x="411.5" y="0.5" width="84" height="100" fill="white" stroke="#555555"/>
<rect x="411.5" y="0.5" width="21" height="21" fill="white" stroke="#555555"/>
<rect x="231.5" y="232.5" width="85" height="21" fill="white" stroke="#555555"/>
<rect x="67.5" y="210.5" width="61" height="73" fill="white" stroke="#555555"/>
<rect x="76.5" y="221.5" width="43" height="25" fill="white" stroke="#555555"/>
<rect x="76.5" y="254.5" width="43" height="10" fill="white" stroke="#555555"/>
<rect x="485.5" y="236.5" width="60" height="17" fill="white" stroke="#555555"/>
<path d="M466.354 195.354C466.549 195.158 466.549 194.842 466.354 194.646L463.172 191.464C462.976 191.269 462.66 191.269 462.464 191.464C462.269 191.66 462.269 191.976 462.464 192.172L465.293 195L462.464 197.828C462.269 198.024 462.269 198.34 462.464 198.536C462.66 198.731 462.976 198.731 463.172 198.536L466.354 195.354ZM354 195.5H466V194.5H354V195.5Z" fill="#555555"/>
<path d="M188.354 173.354C188.549 173.158 188.549 172.842 188.354 172.646L185.172 169.464C184.976 169.269 184.66 169.269 184.464 169.464C184.269 169.66 184.269 169.976 184.464 170.172L187.293 173L184.464 175.828C184.269 176.024 184.269 176.34 184.464 176.536C184.66 176.731 184.976 176.731 185.172 176.536L188.354 173.354ZM76 173.5H188V172.5H76V173.5Z" fill="#555555"/>
<path d="M152.646 246.646C152.451 246.842 152.451 247.158 152.646 247.354L155.828 250.536C156.024 250.731 156.34 250.731 156.536 250.536C156.731 250.34 156.731 250.024 156.536 249.828L153.707 247L156.536 244.172C156.731 243.976 156.731 243.66 156.536 243.464C156.34 243.269 156.024 243.269 155.828 243.464L152.646 246.646ZM190 246.5H153V247.5H190V246.5Z" fill="#555555"/>
<path d="M387.926 50.3552C387.944 50.0796 387.735 49.8419 387.46 49.8242L382.969 49.536C382.693 49.5183 382.455 49.7273 382.438 50.0029C382.42 50.2785 382.629 50.5162 382.905 50.5339L386.897 50.7901L386.64 54.7819C386.623 55.0575 386.832 55.2952 387.107 55.3129C387.383 55.3306 387.621 55.1216 387.638 54.846L387.926 50.3552ZM303.962 124.386L387.758 50.6987L387.097 49.9477L303.301 123.635L303.962 124.386Z" fill="#555555"/>
<line x1="518" y1="69.5" x2="546" y2="69.5" stroke="#555555"/>
<line x1="67" y1="146.5" x2="96" y2="146.5" stroke="#555555"/>
<line x1="518" y1="60.5" x2="546" y2="60.5" stroke="#555555"/>
<line x1="67" y1="137.5" x2="96" y2="137.5" stroke="#555555"/>
<line x1="518" y1="52.5" x2="546" y2="52.5" stroke="#555555"/>
<line x1="67" y1="128.5" x2="96" y2="128.5" stroke="#555555"/>
</svg>
