<svg width="250" height="133" viewBox="0 0 250 133" fill="none" xmlns="http://www.w3.org/2000/svg">
<path d="M249.5 89.5C249.5 96.6627 243.473 102.5 236 102.5C228.527 102.5 222.5 96.6627 222.5 89.5C222.5 82.3373 228.527 76.5 236 76.5C243.473 76.5 249.5 82.3373 249.5 89.5Z" stroke="#B1B1B1"/>
<path d="M26.5 79.5C26.5 84.4467 22.2712 88.5 17 88.5C11.7288 88.5 7.5 84.4467 7.5 79.5C7.5 74.5533 11.7288 70.5 17 70.5C22.2712 70.5 26.5 74.5533 26.5 79.5Z" stroke="#B1B1B1"/>
<path d="M19.5 103.5C19.5 108.447 15.2712 112.5 10 112.5C4.72882 112.5 0.5 108.447 0.5 103.5C0.5 98.5533 4.72882 94.5 10 94.5C15.2712 94.5 19.5 98.5533 19.5 103.5Z" stroke="#B1B1B1"/>
<rect x="98.5" y="70.5" width="54" height="62" fill="white" stroke="#B1B1B1"/>
<rect x="106.5" y="79.5" width="38" height="21" fill="white" stroke="#B1B1B1"/>
<rect x="188.5" y="0.5" width="38" height="45" fill="white" stroke="#B1B1B1"/>
<rect x="188.5" y="0.5" width="9" height="9" fill="white" stroke="#B1B1B1"/>
<rect x="106.5" y="106.5" width="38" height="9" fill="white" stroke="#B1B1B1"/>
<rect x="31.5" y="96.5" width="27" height="33" fill="white" stroke="#B1B1B1"/>
<rect x="35.5" y="101.5" width="19" height="11" fill="white" stroke="#B1B1B1"/>
<rect x="35.5" y="116.5" width="19" height="4" fill="white" stroke="#B1B1B1"/>
<rect x="222.5" y="108.5" width="27" height="7" fill="white" stroke="#B1B1B1"/>
<path d="M213.354 89.3536C213.549 89.1583 213.549 88.8417 213.354 88.6464L210.172 85.4645C209.976 85.2692 209.66 85.2692 209.464 85.4645C209.269 85.6597 209.269 85.9763 209.464 86.1716L212.293 89L209.464 91.8284C209.269 92.0237 209.269 92.3403 209.464 92.5355C209.66 92.7308 209.976 92.7308 210.172 92.5355L213.354 89.3536ZM162 89.5H213V88.5H162V89.5Z" fill="#B1B1B1"/>
<path d="M86.3536 79.3536C86.5488 79.1583 86.5488 78.8417 86.3536 78.6464L83.1716 75.4645C82.9763 75.2692 82.6597 75.2692 82.4645 75.4645C82.2692 75.6597 82.2692 75.9763 82.4645 76.1716L85.2929 79L82.4645 81.8284C82.2692 82.0237 82.2692 82.3403 82.4645 82.5355C82.6597 82.7308 82.9763 82.7308 83.1716 82.5355L86.3536 79.3536ZM35 79.5H86V78.5H35V79.5Z" fill="#B1B1B1"/>
<path d="M69.6464 112.646C69.4512 112.842 69.4512 113.158 69.6464 113.354L72.8284 116.536C73.0237 116.731 73.3403 116.731 73.5355 116.536C73.7308 116.34 73.7308 116.024 73.5355 115.828L70.7071 113L73.5355 110.172C73.7308 109.976 73.7308 109.66 73.5355 109.464C73.3403 109.269 73.0237 109.269 72.8284 109.464L69.6464 112.646ZM87 112.5H70V113.5H87V112.5Z" fill="#B1B1B1"/>
<path d="M177.797 23.032C177.815 22.7564 177.606 22.5187 177.331 22.501L172.84 22.2127C172.564 22.195 172.326 22.4041 172.309 22.6797C172.291 22.9552 172.5 23.193 172.776 23.2107L176.767 23.4669L176.511 27.4587C176.494 27.7342 176.703 27.972 176.978 27.9897C177.254 28.0074 177.491 27.7983 177.509 27.5227L177.797 23.032ZM139.33 57.0537L177.629 23.3754L176.968 22.6245L138.67 56.3027L139.33 57.0537Z" fill="#B1B1B1"/>
<line x1="237" y1="31.5" x2="250" y2="31.5" stroke="#B1B1B1"/>
<line x1="31" y1="66.5" x2="44" y2="66.5" stroke="#B1B1B1"/>
<line x1="237" y1="27.5" x2="250" y2="27.5" stroke="#B1B1B1"/>
<line x1="31" y1="62.5" x2="44" y2="62.5" stroke="#B1B1B1"/>
<line x1="237" y1="23.5" x2="250" y2="23.5" stroke="#B1B1B1"/>
<line x1="31" y1="58.5" x2="44" y2="58.5" stroke="#B1B1B1"/>
</svg>
