<svg width="391" height="91" viewBox="0 0 391 91" fill="none" xmlns="http://www.w3.org/2000/svg">
<path d="M285.295 45L312 91H259L285.295 45Z" fill="#60FFE2"/>
<path d="M177.364 0L195 30H160L177.364 0Z" fill="#60FFE2"/>
<circle cx="114" cy="11" r="5" fill="#FF8472"/>
<circle cx="148" cy="11" r="4.5" fill="#FF8472" stroke="#FD408D"/>
<circle cx="293" cy="71" r="11" fill="#FD408D"/>
<rect x="124" y="18" width="29" height="42" fill="#FD408D"/>
<rect x="90" y="18" width="29" height="27" fill="#FD408D"/>
<rect x="127" y="21" width="23" height="5" fill="white"/>
<path d="M130.473 52L134 58H127L130.473 52Z" fill="#60FFE2"/>
<path d="M138.473 52L142 58H135L138.473 52Z" fill="#60FFE2"/>
<path d="M146.473 52L150 58H143L146.473 52Z" fill="#60FFE2"/>
<rect x="127" y="28" width="23" height="5" fill="white"/>
<rect x="127" y="35" width="23" height="5" fill="white"/>
<rect x="93" y="22" width="23" height="5" fill="white"/>
<rect x="127" y="42" width="23" height="5" fill="white"/>
<rect x="93" y="29" width="23" height="5" fill="white"/>
<rect x="93" y="36" width="23" height="5" fill="#60FFE2"/>
<rect x="317" y="39" width="74" height="52" fill="#FD408D"/>
<rect x="80" y="49" width="39" height="42" fill="#FD408D"/>
<path d="M381.543 44L376 53H387L381.543 44Z" fill="#60FFE2"/>
<circle cx="89" cy="66" r="3" fill="#1F6D99"/>
<circle cx="100" cy="66" r="3" fill="#FF8472"/>
<circle cx="111" cy="66" r="3" fill="#1F6D99"/>
<rect x="322" y="82" width="27" height="5" fill="white"/>
<rect x="341" y="20" width="29" height="42" fill="#FF8472"/>
<rect x="344" y="23" width="23" height="5" fill="white"/>
<path d="M351.473 54L355 60H348L351.473 54Z" fill="#60FFE2"/>
<path d="M359.473 54L363 60H356L359.473 54Z" fill="#60FFE2"/>
<rect x="344" y="30" width="23" height="5" fill="white"/>
<rect x="344" y="37" width="23" height="5" fill="white"/>
<rect x="344" y="44" width="23" height="5" fill="white"/>
<rect y="66" width="76" height="25" fill="#FF8472"/>
<rect x="50" y="52" width="23" height="5" fill="white"/>
<path d="M13.9147 69L25 88H3L13.9147 69Z" fill="#60FFE2"/>
<rect x="29" y="69" width="44" height="5" fill="white"/>
<rect x="29" y="76" width="44" height="5" fill="white"/>
<rect x="29" y="83" width="44" height="5" fill="white"/>
<rect x="321" y="43" width="10" height="5" fill="white"/>
<rect x="84" y="54" width="31" height="5" fill="white"/>
<rect x="160" y="35" width="94" height="56" fill="#FD408D"/>
<rect x="208" y="47" width="39" height="5" fill="white"/>
<rect x="208" y="55" width="39" height="5" fill="white"/>
<rect x="208" y="63" width="39" height="5" fill="white"/>
<rect x="208" y="71" width="27" height="5" fill="white"/>
<ellipse cx="184" cy="62.5" rx="14" ry="13.5" fill="#FF8472"/>
<ellipse cx="138" cy="77.5" rx="14" ry="13.5" fill="#FF8472"/>
<rect x="130" y="75" width="16" height="5" fill="white"/>
<circle cx="148" cy="68" r="4" fill="#FD408D"/>
<path d="M99.4419 74L107 86H92L99.4419 74Z" fill="#60FFE2"/>
</svg>
