<svg width="395" height="202" viewBox="0 0 395 202" fill="none" xmlns="http://www.w3.org/2000/svg">
<path d="M99.7471 58L140.115 126.67H60L99.7471 58Z" fill="#41A08F"/>
<circle cx="361.936" cy="114.445" r="11.445" fill="#FF8472"/>
<rect x="307" y="130.468" width="66.3811" height="61.8031" fill="#FD408D"/>
<rect x="313.867" y="139.624" width="52.6471" height="11.445" fill="white"/>
<rect x="313.867" y="155.647" width="52.6471" height="11.445" fill="white"/>
<rect x="313.867" y="171.67" width="52.6471" height="11.445" fill="#60FFE2"/>
<path d="M38.9839 30L64.3581 73.4911H14L38.9839 30Z" fill="#FF8472"/>
<path d="M53.8837 29L69 55H39L53.8837 29Z" fill="#FFDED9"/>
<rect x="300" y="29" width="95" height="31.25" fill="#FD408D"/>
<path d="M317.393 32.75L331.25 56.5H303.75L317.393 32.75Z" fill="#FF8472"/>
<rect x="336.25" y="32.75" width="55" height="6.25" fill="white"/>
<rect x="336.25" y="41.5" width="55" height="6.25" fill="white"/>
<rect x="336.25" y="50.25" width="55" height="6.25" fill="#60FFE2"/>
<rect x="119" y="73" width="169.386" height="119.028" fill="#FD408D"/>
<path d="M266.738 84.4449L254.051 105.046H279.23L266.738 84.4449Z" fill="#60FFE2"/>
<rect x="130.445" y="171.427" width="61.8031" height="11.445" fill="white"/>
<rect x="173.936" width="66.3811" height="96.1382" fill="#FF8472"/>
<rect x="180.803" y="6.86694" width="52.6471" height="11.445" fill="#1F6D99"/>
<path d="M197.908 77.826L205.982 91.5601H189.959L197.908 77.826Z" fill="#60FFE2"/>
<path d="M216.221 77.826L224.294 91.5601H208.271L216.221 77.826Z" fill="#60FFE2"/>
<rect x="180.803" y="22.89" width="52.6471" height="11.445" fill="white"/>
<rect x="180.803" y="38.913" width="52.6471" height="11.445" fill="white"/>
<rect x="180.803" y="54.9359" width="52.6471" height="11.445" fill="white"/>
<rect x="128.156" y="82.156" width="22.89" height="11.445" fill="white"/>
<ellipse cx="32.0461" cy="170.902" rx="32.0461" ry="30.9016" fill="#FF8472"/>
<rect x="13.7334" y="165.179" width="36.6241" height="11.445" fill="white"/>
<circle cx="54.9358" cy="149.156" r="9.15602" fill="#FD408D"/>
</svg>
