<svg width="453" height="183" viewBox="0 0 453 183" fill="none" xmlns="http://www.w3.org/2000/svg">
<path d="M141.188 0L202.317 105.294H81L141.188 0Z" fill="#60FFE2"/>
<circle cx="158.826" cy="59.5141" r="25.179" fill="#FD408D"/>
<circle cx="54.936" cy="62.445" r="10.945" fill="#FF8472" stroke="#FD408D"/>
<rect y="78.4681" width="66.3811" height="96.1382" fill="#FD408D"/>
<rect x="6.8667" y="85.3352" width="52.6471" height="11.445" fill="white"/>
<path d="M14.8161 156.294L22.8897 170.028H6.8667L14.8161 156.294Z" fill="#60FFE2"/>
<path d="M33.1281 156.294L41.2017 170.028H25.1787L33.1281 156.294Z" fill="#60FFE2"/>
<path d="M51.4404 156.294L59.514 170.028H43.491L51.4404 156.294Z" fill="#60FFE2"/>
<rect x="6.8667" y="101.358" width="52.6471" height="11.445" fill="white"/>
<rect x="6.8667" y="117.381" width="52.6471" height="11.445" fill="white"/>
<rect x="6.8667" y="133.404" width="52.6471" height="11.445" fill="white"/>
<rect x="239" y="33" width="49" height="10" fill="#FD408D"/>
<rect x="224" y="33" width="10" height="10" fill="#FF8472"/>
<rect x="413" y="55" width="40" height="40" fill="#41A08F"/>
<circle cx="433" cy="55" r="13" fill="#FD408D"/>
<rect x="192" y="65" width="158" height="94.1277" fill="#FD408D"/>
<rect x="269.743" y="88.8418" width="65.5532" height="8.40425" fill="white"/>
<rect x="269.743" y="102.289" width="65.5532" height="8.40425" fill="white"/>
<rect x="269.743" y="115.735" width="65.5532" height="8.40425" fill="white"/>
<rect x="269.743" y="129.182" width="45.383" height="8.40425" fill="white"/>
<ellipse cx="232.34" cy="111.958" rx="23.5319" ry="22.6915" fill="#FF8472"/>
<rect x="396" y="127" width="52" height="56" fill="#FD408D"/>
<circle cx="408" cy="149.667" r="4" fill="#1F6D99"/>
<circle cx="422.667" cy="149.667" r="4" fill="#FF8472"/>
<circle cx="437.333" cy="149.667" r="4" fill="#1F6D99"/>
<rect x="401.333" y="133.667" width="41.3333" height="6.66667" fill="white"/>
<path d="M421.922 160.333L432 176.333H412L421.922 160.333Z" fill="#60FFE2"/>
<rect x="134" y="139" width="10" height="10" fill="#FF8472"/>
<rect x="147" y="139" width="10" height="10" fill="#FF8472"/>
<rect x="160" y="139" width="10" height="10" fill="#FF8472"/>
<rect x="160" y="152" width="10" height="10" fill="#FF8472"/>
<rect x="147" y="152" width="10" height="10" fill="#FF8472"/>
<rect x="134" y="152" width="10" height="10" fill="#FF8472"/>
<rect x="324" y="33" width="53" height="50" fill="#FF8472"/>
<rect x="328" y="68" width="20" height="11" fill="white"/>
<rect x="328" y="48" width="44" height="6" fill="white"/>
<rect x="352" y="68" width="20" height="11" fill="#60FFE2"/>
</svg>
