<svg xmlns="http://www.w3.org/2000/svg" viewBox="0 0 89.52 56.82"><defs><style>.cls-1{fill:#ffded9;}</style></defs><g id="Layer_2" data-name="Layer 2"><g id="Layer_2-2" data-name="Layer 2"><path class="cls-1" d="M.62,51.63A30.15,30.15,0,0,1,8,47c1.48-1.81,4.63-2.41,6.88-3.32a75.45,75.45,0,0,0,20.67-12.1A47.28,47.28,0,0,0,49,13.56a38.08,38.08,0,0,0,1.75-5.39c.21-.85.39-1.71.53-2.58a24.77,24.77,0,0,1,.4-2.87C52.82-1.13,58.76.17,61.75.39L76.42,1.46c2.23.16,4.47.26,6.68.51A8,8,0,0,1,88,3.84c1.59,1.55,1.55,3.75,1.48,5.77a53,53,0,0,1-.64,6.29,47.73,47.73,0,0,1-3.5,11.77,52.26,52.26,0,0,1-2.79,5.48,2,2,0,0,1-.47.53A15.52,15.52,0,0,1,81,35.52c-3.67,5.37-10.07,8-16.21,10.06A118,118,0,0,1,43,50.69c-2.83.39-5.67.67-8.52.87-5.36,1-10.77,1.9-16.18,2.59a32.11,32.11,0,0,1-8.42,2,.86.86,0,0,1-.16,0,12.28,12.28,0,0,1-7.14.3A2,2,0,0,1,1.09,54.8l0,0A2,2,0,0,1,.62,51.63ZM63.79,13.56l0,.57a2.41,2.41,0,0,1,.38,0,1.89,1.89,0,0,1,0-2.09c0-.07-.12-.13-.17-.2a1.14,1.14,0,0,1-.18-.25C63.84,12.25,63.81,12.9,63.79,13.56Zm3.4,2.25A4.74,4.74,0,0,0,65.87,15a1.67,1.67,0,0,1,.25,1l0,.48A2,2,0,0,1,67.19,15.81ZM61,33.24a7.38,7.38,0,0,1-.12-.84l-.49.57a2,2,0,0,1-2.64.22c-.33.24-.67.47-1,.73a1.84,1.84,0,0,1,.66,1.9,2,2,0,0,1,.32.17L61,34.69A1.61,1.61,0,0,1,61,33.24Zm-22.2,6,.64-.54a33.82,33.82,0,0,1,5.63-5.84l.86-1.71a78.41,78.41,0,0,1-8.59,7.79A2.17,2.17,0,0,1,38.8,39.2ZM56.25,15.51a2.61,2.61,0,0,1,.24.23,2.27,2.27,0,0,1,.9,0,17.54,17.54,0,0,1,2.23-9.22,2,2,0,0,1,.5-.59l-1.47-.41A35.28,35.28,0,0,1,56.25,15.51ZM14.43,48.11l-.27.09a2.88,2.88,0,0,1-.13.31c-.07.12-.15.24-.22.37l1.1-.28a2.23,2.23,0,0,1,.72-.05,2.17,2.17,0,0,1,.77-.73l2.68-1.6C17.54,46.88,16,47.51,14.43,48.11ZM77,34a51.79,51.79,0,0,1-8.43,6,23.22,23.22,0,0,0,7.49-4.86A12.15,12.15,0,0,0,77,34Z"/></g></g></svg>