<svg xmlns="http://www.w3.org/2000/svg" viewBox="0 0 126.79 92.04"><defs><style>.cls-1{fill:#ffded9;}</style></defs><g id="Layer_2" data-name="Layer 2"><g id="Layer_2-2" data-name="Layer 2"><path class="cls-1" d="M125.78,86.75,97.47,74.46c-2.24-1-4.51-1.91-6.73-2.93-1.7-.78-3.62-1.71-4.47-3.47s-.52-3.88-.07-5.71c.56-2.29,1.37-4.52,2.1-6.76L93.7,39a2,2,0,0,0-1.39-2.46c-8.83-2.29-17.75.09-26.18,2.81-2.14.69-4.26,1.41-6.4,2.08-1,.33-3.81,1.66-4.77.61-.77-.84-.13-2.66.17-3.56a44.42,44.42,0,0,1,2.77-5.73q3.65-7.24,7.36-14.46c.53-1,.17-2.74-1.19-2.94A91.48,91.48,0,0,0,30.8,16.65,21.47,21.47,0,0,1,33.34,3.9a2,2,0,0,0-1.72-3Q26,.34,20.26.15A60.54,60.54,0,0,0,9.83.3,8.44,8.44,0,0,0,3.15,5.46,37.53,37.53,0,0,0,.64,15,53.07,53.07,0,0,0,.05,25.34C.18,28.23.17,32,2.26,34.22a4.75,4.75,0,0,0,1,.83c1.68,1.78,4.44,2.39,6.94,2.35,2.06,0,4.12-.36,6.16-.58L23.8,36l13.38-1.45L31.64,46.71q-1.74,3.81-3.49,7.64c-1.12,2.45-2.72,5.06-3,7.77-.56,4.77,3.77,6.9,7.89,6.76a49.16,49.16,0,0,0,6.92-1l8.25-1.47,16.26-2.89c-.39,8,.1,17,5.62,23.09,3.61,4,8.84,5.32,14.06,5.44,6.14.13,12.34-.4,18.47-.65l22.18-.9C126.57,90.4,127.73,87.59,125.78,86.75ZM90.06,83.32a2.1,2.1,0,0,0-.83-1.55l1.67.48A2.05,2.05,0,0,0,90.06,83.32Zm-42-54.64,1.31-.19-1.77,2.63c.13-.56.27-1.12.4-1.68A2.27,2.27,0,0,0,48.05,28.68ZM77.16,73.46s0-.06,0-.08c0-.25,0-.5.07-.75a4.57,4.57,0,0,0,.37.41,6.13,6.13,0,0,0,.86.66,2.12,2.12,0,0,0,.09,1.74,2.16,2.16,0,0,0-1.13.09Q77.28,74.5,77.16,73.46Zm-28-21a2.17,2.17,0,0,0-.88,2.27l-1.08.33a2.86,2.86,0,0,0,.48-3.53,2,2,0,0,0,.8-1.12l.06-.19a1.91,1.91,0,0,0,.63.57c.15.34.31.68.43,1a3,3,0,0,0,.16.31Zm-30.2-35.7c.12-.73.23-1.47.32-2.2l.12-.14a2,2,0,0,0,1.43,1,.57.57,0,0,1,0,.14l-.15.07A11.71,11.71,0,0,0,18.91,16.79Zm-.24,8.78a10.72,10.72,0,0,0,.25-2.26,8.64,8.64,0,0,1,.7-1.35c0,.66,0,1.33.06,2a3,3,0,0,0-.38,1.73l-.25,0C18.92,25.67,18.8,25.61,18.67,25.57ZM85.19,81.42,85,79.66a1.83,1.83,0,0,0,1.31,1.26l1.72.49ZM53.9,50.69l-.49.1c-.15-.44-.32-.87-.5-1.3l-1-2.72,0-.51A27.53,27.53,0,0,0,53.9,50.69Zm-2.25,8.08,2.78-.9a2,2,0,0,0,1.24-1.14l.08,0a1.75,1.75,0,0,0,1.74,1.48l-6,1.1A2.15,2.15,0,0,0,51.65,58.77Zm30.81-.34a2.2,2.2,0,0,0-.23-.54l.12-.26a1.27,1.27,0,0,0,.23.12,2,2,0,0,0,.68.15c-.18.55-.36,1.1-.52,1.66C82.65,59.18,82.56,58.8,82.46,58.43ZM13.11,28.2a1.8,1.8,0,0,0,1.27,1.12l.43.09-2.7.45A13.29,13.29,0,0,0,13.11,28.2ZM41.37,52.68a6,6,0,0,0,.39,1.25,4.34,4.34,0,0,0,.53.85,11.64,11.64,0,0,1-3,2.7l0,0ZM88,86.36a2.16,2.16,0,0,0,2-2.16v0a1.94,1.94,0,0,0,1.41,1.67c.56.18,1.12.34,1.69.49a52.51,52.51,0,0,1-5.61.08A5.35,5.35,0,0,0,88,86.36ZM46.59,20.48l.24.23a1,1,0,0,0-.15.14,2,2,0,0,0-2.14-.15l-.77.37c.23-.24.48-.47.7-.71A2,2,0,0,0,45,18.57l1.11-.07A2.23,2.23,0,0,0,46.59,20.48Zm-20,.11c-.13-.4-.27-.8-.4-1.19A15.36,15.36,0,0,0,27,17.87c.08.57.17,1.15.29,1.73a1.63,1.63,0,0,0,.23.54C27.18,20.28,26.89,20.43,26.61,20.59Zm17,9.05-.14.39a2,2,0,0,0-1.71.69,1.62,1.62,0,0,0-.55-.37Zm-9,29.55c.28-.82.59-1.63.93-2.42a2.24,2.24,0,0,0,1.84,1.66A11.17,11.17,0,0,1,34.66,59.19Zm34.13,7.25c.24-.4.45-.82.68-1.23A2,2,0,0,0,72.56,65c0,.84,0,1.67.09,2.51l-.07.49a2,2,0,0,0-2.44-1.34,2.19,2.19,0,0,0-1.8.67V67A1.9,1.9,0,0,0,68.79,66.44Zm.68,10.15a1.92,1.92,0,0,0,2,1.41c.51,1,1,1.94,1.63,2.89-.58-.19-1.15-.39-1.72-.61a1.72,1.72,0,0,0-.79-.12,23.74,23.74,0,0,1-1.56-5L69,74.68C69.11,75.32,69.27,76,69.47,76.59Zm16.67-3.1-1.34-.33a1.6,1.6,0,0,0-.63-.2L84,71.71A11.37,11.37,0,0,0,86.14,73.49ZM87.88,44a2.15,2.15,0,0,0-.74-.87c.34-.25.67-.51,1-.77a1.92,1.92,0,0,0,.48-.57Zm.88-2.69a1.81,1.81,0,0,0-.46-1.44l.89.12C89,40.38,88.9,40.82,88.76,41.26Zm-78.27-37a15,15,0,0,1,2-.15L11,4.51a2.47,2.47,0,0,0-1.52,0A5.39,5.39,0,0,1,10.49,4.22ZM9,4.69a1.71,1.71,0,0,0-.78,1.08l-.2.85-.55.22a1.61,1.61,0,0,0-.87,1,2.16,2.16,0,0,0-.25.27A5.7,5.7,0,0,1,9,4.69ZM37.63,43.16a2.05,2.05,0,0,0,2.2.49l0,.23a1.8,1.8,0,0,0-1.92.93l-.95,1.81-.16.18a42.73,42.73,0,0,0-2.59,4L35,49ZM29.1,62.4c.16.23.32.46.5.68a5.27,5.27,0,0,0,.1,1.19A1.83,1.83,0,0,1,29.1,62.4Zm6.83,2.11a2.1,2.1,0,0,0-.32-1.46,14.81,14.81,0,0,0,1.72-.41,2,2,0,0,0,0,1.62l-1.17.2Zm78.5,22.39a2.25,2.25,0,0,0,0-.73l1.54.67Z"/></g></g></svg>