<svg xmlns="http://www.w3.org/2000/svg" viewBox="0 0 88.58 61.09"><defs><style>.cls-1{fill:#ffded9;}</style></defs><g id="Layer_2" data-name="Layer 2"><g id="Layer_2-2" data-name="Layer 2"><path class="cls-1" d="M71.49,41.46c-8-5-15.06-12.15-18.39-21.14A32,32,0,0,1,51.31,4a2,2,0,0,0-1.93-2.53L23,1.11,16.53,1c-.48,0-1,0-1.46,0C11-.88,5.4.24,1.43,1.61A2.08,2.08,0,0,0,0,4.07,89.43,89.43,0,0,0,9.79,33.56c2.3,4.27,4.91,8.56,8.43,11.94a26.65,26.65,0,0,0,5.5,4l.81.75a40.1,40.1,0,0,0,9.06,6.28,23,23,0,0,0,9,2.35,53,53,0,0,0,7.94.81,77.06,77.06,0,0,0,10.28,1.2c1,0,1.94.08,2.91.1l.53.07A2.79,2.79,0,0,0,65.37,61a167.24,167.24,0,0,0,21.21-1.49,2.05,2.05,0,0,0,2-2C88.7,48.49,77.72,45.31,71.49,41.46ZM39.3,33a5.64,5.64,0,0,0,1,.15l4,3.87a1.91,1.91,0,0,0-.77.46c-.58.62-1.17,1.23-1.76,1.85l-1.26-.49c.09-.23.17-.48.27-.71a2,2,0,0,0-1.45-2.94Zm7.58,6.51,2.82,2.72c-1-.35-2-.72-3-1.08C46.77,40.58,46.83,40,46.88,39.49Zm-21.68,1a2,2,0,0,0,.09,2c-.61-.63-1.19-1.28-1.76-2a2.8,2.8,0,0,0-.61-1,2.23,2.23,0,0,0,1.6-1.7h0a1.93,1.93,0,0,0,.56,1.53l.45.45Zm-2-5.64s0,.09-.05.14a12.1,12.1,0,0,1-.7-3.27l1-1c.31.45.61.9.91,1.36ZM28.35,43l.29-.35.58.46Q29,44,28.89,45c0,.11,0,.22,0,.33-.61-.33-1.22-.67-1.81-1-.32-.3-.61-.62-.92-.92A1.68,1.68,0,0,0,28.35,43Zm4.2,3.57c.16-.21.35-.42.51-.63.48.31.95.61,1.43.9l-.06.66c-.72-.18-1.44-.39-2.14-.64A1.84,1.84,0,0,0,32.55,46.54ZM4.36,5.77c-.05-.28-.1-.56-.14-.84L5,4.69A5,5,0,0,0,4.36,5.77ZM58.84,48.32a2.24,2.24,0,0,0,.55-1c.25.17.5.32.75.5l.53.37c0,.1-.05.2-.07.3A5.41,5.41,0,0,0,58.84,48.32Zm10.37,1.36a21,21,0,0,0,3,.54l.67.35a1.05,1.05,0,0,0,.06.24,16.08,16.08,0,0,1-2.5,0,1.65,1.65,0,0,0-.9.17c-.29-.24-.59-.47-.89-.7A2.17,2.17,0,0,0,69.21,49.68ZM61.9,39.31a2,2,0,0,0-1,.08s0-.07,0-.1L59.43,37C60.23,37.8,61.05,38.57,61.9,39.31ZM39.56,27.09c0,.15.16,1.19.28,1.89h0c-.2-.06-.39-.14-.59-.21,0-.43,0-.87,0-1.31a1.83,1.83,0,0,0-1.63-1.89l1.1-2.11c0,.09.05.18.08.27a2.1,2.1,0,0,0,0,1.89c.22.45.47.88.71,1.32A1.24,1.24,0,0,0,39.56,27.09Zm-1.85-6.87a2,2,0,0,0-.89-.07c.17-.36.35-.71.52-1.07C37.47,19.46,37.59,19.84,37.71,20.22ZM20.65,5.08l-.17,0A1.76,1.76,0,0,0,19.2,6.22,5.8,5.8,0,0,0,19,5.05h.54ZM44.58,53.94A44.37,44.37,0,0,0,40.38,52c.49,0,1-.07,1.47-.13a2.18,2.18,0,0,0,2.85.79l3.11,1ZM59.85,55a2,2,0,0,0-1.41-2l-1.15-.38,2-.4,3.16.89,1.13.32a2.59,2.59,0,0,0,0,.48,1.89,1.89,0,0,0,.06.18Zm14.54,1.69a1.73,1.73,0,0,0,0-.6l4.51.24C77.41,56.51,75.9,56.63,74.39,56.73Zm4.72-5.5a2,2,0,0,0,.09-1A20.28,20.28,0,0,1,81,51.5,12.33,12.33,0,0,0,79.11,51.23Z"/></g></g></svg>