<svg xmlns="http://www.w3.org/2000/svg" viewBox="0 0 84.6 56.82"><defs><style>.cls-1{fill:#ffded9;}</style></defs><g id="Layer_2" data-name="Layer 2"><g id="Layer_2-2" data-name="Layer 2"><path class="cls-1" d="M84,51.63a28.4,28.4,0,0,0-7-4.67c-1.4-1.81-4.38-2.41-6.5-3.32A70.3,70.3,0,0,1,51,31.54a47.2,47.2,0,0,1-12.69-18,40.4,40.4,0,0,1-1.65-5.39q-.3-1.27-.51-2.58a24.74,24.74,0,0,0-.37-2.87C34.68-1.13,29.07.17,26.25.39L12.38,1.46c-2.1.16-4.22.26-6.31.51A7.33,7.33,0,0,0,1.42,3.84C-.08,5.39,0,7.59,0,9.61A52.93,52.93,0,0,0,.63,15.9a50,50,0,0,0,3.3,11.77,53.07,53.07,0,0,0,2.64,5.48,1.79,1.79,0,0,0,.45.53,16.45,16.45,0,0,0,1,1.84c3.47,5.37,9.52,8,15.32,10.06A106.4,106.4,0,0,0,44,50.69c2.68.39,5.36.67,8,.87,5.06,1,10.18,1.9,15.29,2.59a29,29,0,0,0,8,2,.75.75,0,0,0,.15,0,11,11,0,0,0,6.74.3,2,2,0,0,0,1.38-1.62l0,0A2,2,0,0,0,84,51.63ZM24.31,13.56l0,.57a2,2,0,0,0-.35,0,2,2,0,0,0,0-2.09c.06-.07.12-.13.17-.2a1.1,1.1,0,0,0,.17-.25ZM21.1,15.81A4.52,4.52,0,0,1,22.35,15a1.73,1.73,0,0,0-.24,1l0,.48A1.91,1.91,0,0,0,21.1,15.81ZM27,33.24q.07-.41.12-.84l.46.57a1.78,1.78,0,0,0,2.49.22c.31.24.63.47.94.73a1.89,1.89,0,0,0-.62,1.9A1.46,1.46,0,0,0,30,36L27,34.69A1.68,1.68,0,0,0,27,33.24Zm21,6-.62-.54A32.75,32.75,0,0,0,42,32.82c-.28-.57-.54-1.14-.82-1.71a76.56,76.56,0,0,0,8.12,7.79A1.93,1.93,0,0,0,47.94,39.2ZM31.44,15.51a2.39,2.39,0,0,0-.22.23,2.08,2.08,0,0,0-.86,0,18.22,18.22,0,0,0-2.11-9.22,1.75,1.75,0,0,0-.47-.59l1.39-.41A37.28,37.28,0,0,0,31.44,15.51ZM71,48.11l.26.09a1.66,1.66,0,0,0,.12.31c.06.12.14.24.21.37l-1-.28a2,2,0,0,0-.68-.05,2.12,2.12,0,0,0-.73-.73l-2.53-1.6Q68.75,47.21,71,48.11ZM11.85,34a49.18,49.18,0,0,0,8,6,21.86,21.86,0,0,1-7.08-4.86A11.46,11.46,0,0,1,11.85,34Z"/></g></g></svg>