<svg xmlns="http://www.w3.org/2000/svg" viewBox="0 0 94.78 80.68"><defs><style>.cls-1{fill:#ffded9;}</style></defs><g id="Layer_2" data-name="Layer 2"><g id="Layer_2-2" data-name="Layer 2"><path class="cls-1" d="M93.35,74.45c-12-2.6-24.69-5.41-35.73-11-.42-.31-.85-.62-1.26-.94A60.81,60.81,0,0,1,44.07,49.75,21.06,21.06,0,0,1,43.29,40C44.6,31.71,49.68,24.7,55,18.48c3.09-3.61,6.3-7.1,9.26-10.82A47.88,47.88,0,0,1,68.82,6a2,2,0,0,0,0-3.86C61-.32,52.59-.22,44.33.3c-4,0-8.08.12-12.12.34s-7.92.5-11.87.81L14.41,2c-1.92.16-4,.17-5.69,1.22C6.21,4.72,4.87,8,3.83,10.65a32.11,32.11,0,0,0-2,8c-.08.72-.14,1.45-.18,2.18A33.84,33.84,0,0,0,0,30.76a20,20,0,0,0,2.45,9.47c1.39,3.82,4.08,7.14,6.89,10C22.92,64.09,41.27,72,60,76.23a207.12,207.12,0,0,0,32.71,4.44c1.83.12,2.33-1.82,1.58-3C95.11,76.59,95,74.82,93.35,74.45ZM36.81,28.77h0a33.74,33.74,0,0,0-.52,3.59A8.8,8.8,0,0,1,36.81,28.77Zm-4.75-8a15.56,15.56,0,0,0,2.44-3.24l.19,0a1.8,1.8,0,0,0,1.34,0,6.91,6.91,0,0,0,.87-.38,1.5,1.5,0,0,0,.32-.09h0l-1,1.1a1.89,1.89,0,0,0-2.28.83L32,22c0-.38,0-.76.06-1.14Zm18.82-4.56c.84-.69,1.69-1.37,2.55-2-1,1.18-2,2.36-3,3.57C50.57,17.25,50.74,16.74,50.88,16.21ZM58.79,5.77a2,2,0,0,0,.6-1.41c.53,0,1,.11,1.58.18C60.23,4.94,59.51,5.34,58.79,5.77Zm-31,50.87Q25.4,55.29,23,53.81l.06-.05a2.14,2.14,0,0,0,.53-1c.45.43.85.92,1.34,1.31a4.89,4.89,0,0,0,3.21,1.19A2,2,0,0,0,27.83,56.64ZM50.4,67.53l.05,0a2.48,2.48,0,0,0-.32,1.54L49,68.39A1.77,1.77,0,0,0,50.4,67.53Zm4.32,3.27a1.92,1.92,0,0,0,.19-1l.07,0c1.79.88,3.59,1.72,5.42,2.5C58.49,71.8,56.61,71.31,54.72,70.8Z"/></g></g></svg>